<svg>
    <defs>
        <symbol viewBox="0 0 92 19" id="logo">
            <path d="M0 1.90984C0 1.63369 0.223858 1.40984 0.5 1.40984H10.2646V4.62525H4.55637C4.28023 4.62525 4.05637 4.84911 4.05637 5.12525V7.9396H9.96779V11.155H4.55637C4.28023 11.155 4.05637 11.3789 4.05637 11.655V14.6672H10.3388V17.8827H0V1.90984Z" fill="#FCFDFF"/>
            <path d="M22.1926 17.8827V8.73109H18.4878C18.2116 8.73109 17.9878 8.95495 17.9878 9.23109V17.8827H14.0303V8.78056H12.1506V6.26302C12.1506 5.98687 12.3744 5.76302 12.6506 5.76302H14.0303V5.41674C14.0303 3.56994 14.4756 2.2343 15.366 1.40984C16.2729 0.585371 17.4849 0.173138 19.0019 0.173138C19.3976 0.173138 19.7851 0.206117 20.1644 0.272075C20.5601 0.321542 20.8981 0.395744 21.1785 0.49468L20.9064 3.36382C20.7745 3.33084 20.6096 3.29786 20.4117 3.26488C20.2138 3.23191 20.0077 3.21542 19.7934 3.21542C19.1668 3.21542 18.7051 3.37206 18.4083 3.68536C18.1279 3.99866 17.9878 4.50983 17.9878 5.21887V5.76302H22.1926V5.41674C22.1926 3.6194 22.6625 2.30026 23.6024 1.4593C24.5423 0.601861 25.7872 0.173138 27.3372 0.173138C27.733 0.173138 28.137 0.206117 28.5492 0.272075C28.9779 0.321542 29.3736 0.420477 29.7364 0.568881L29.4396 3.38855C29.0439 3.27313 28.6151 3.21542 28.1534 3.21542C27.5268 3.21542 27.0322 3.36382 26.6694 3.66063C26.3231 3.95744 26.15 4.48509 26.15 5.2436V5.76302H28.9202V8.78056H26.65C26.3738 8.78056 26.15 9.00442 26.15 9.28056V17.8827H22.1926Z" fill="#FCFDFF"/>
            <path d="M29.5936 15.8545C29.5936 15.2609 29.7832 14.7414 30.1625 14.2962C30.5417 13.851 31.0941 13.6284 31.8197 13.6284C32.5452 13.6284 33.0976 13.851 33.4768 14.2962C33.8561 14.7414 34.0457 15.2609 34.0457 15.8545C34.0457 16.4481 33.8561 16.9675 33.4768 17.4127C33.0976 17.8579 32.5452 18.0805 31.8197 18.0805C31.0941 18.0805 30.5417 17.8579 30.1625 17.4127C29.7832 16.9675 29.5936 16.4481 29.5936 15.8545Z" fill="#FCFDFF"/>
            <path d="M42.8048 5.51568C43.4314 5.51568 44.0415 5.58163 44.6351 5.71355C45.2453 5.84546 45.7729 6.02684 46.2181 6.25769L45.8224 9.07737C45.5091 8.94545 45.1298 8.83003 44.6846 8.73109C44.2559 8.63216 43.8189 8.58269 43.3737 8.58269C42.3184 8.58269 41.5269 8.87125 40.9993 9.44838C40.4716 10.0255 40.2078 10.817 40.2078 11.8228C40.2078 12.8287 40.4716 13.6202 40.9993 14.1973C41.5269 14.7744 42.3184 15.063 43.3737 15.063C43.8189 15.063 44.2559 15.0135 44.6846 14.9146C45.1298 14.8156 45.5091 14.7002 45.8224 14.5683L46.2181 17.388C45.7729 17.6188 45.2453 17.8002 44.6351 17.9321C44.0415 18.064 43.4314 18.13 42.8048 18.13C41.7825 18.13 40.8591 17.9816 40.0346 17.6848C39.2267 17.3715 38.5423 16.9428 37.9817 16.3986C37.4211 15.838 36.9924 15.1702 36.6955 14.3952C36.3987 13.6202 36.2503 12.7627 36.2503 11.8228C36.2503 10.8829 36.3987 10.0255 36.6955 9.2505C36.9924 8.47551 37.4211 7.81593 37.9817 7.27179C38.5423 6.71115 39.2267 6.28243 40.0346 5.98562C40.8591 5.67232 41.7825 5.51568 42.8048 5.51568Z" fill="#FCFDFF"/>
            <path d="M48.5704 17.8827V6.26302C48.5704 5.98687 48.7942 5.76302 49.0704 5.76302H52.5278V17.8827H48.5704ZM48.323 2.22606C48.323 1.59946 48.5291 1.07181 48.9414 0.643084C49.3536 0.214361 49.8895 0 50.5491 0C51.2087 0 51.7446 0.214361 52.1568 0.643084C52.569 1.07181 52.7751 1.59946 52.7751 2.22606C52.7751 2.85265 52.569 3.38031 52.1568 3.80903C51.7446 4.23775 51.2087 4.45211 50.5491 4.45211C49.8895 4.45211 49.3536 4.23775 48.9414 3.80903C48.5291 3.38031 48.323 2.85265 48.323 2.22606Z" fill="#FCFDFF"/>
            <path d="M61.1172 5.51568C62.7002 5.51568 63.9534 5.98562 64.8768 6.92551C65.8002 7.84891 66.2619 9.13508 66.2619 10.784C66.2619 11.4106 66.1877 12.0784 66.0393 12.7875H59.5376C59.2527 12.7875 59.0203 13.0269 59.0774 13.3059C59.1814 13.815 59.4079 14.2441 59.7569 14.593C60.2351 15.0383 60.9606 15.2609 61.9335 15.2609C62.5271 15.2609 63.1454 15.2114 63.7885 15.1125C64.4481 14.997 65.017 14.8321 65.4952 14.6178L65.9898 17.1654C65.3632 17.4787 64.6542 17.7178 63.8627 17.8827C63.0877 18.0476 62.2797 18.13 61.4388 18.13C60.3835 18.13 59.4518 17.9816 58.6439 17.6848C57.8359 17.3715 57.1598 16.9428 56.6157 16.3986C56.0715 15.8545 55.6593 15.2031 55.379 14.4446C55.0986 13.6861 54.9585 12.8452 54.9585 11.9218C54.9585 10.9324 55.0986 10.042 55.379 9.2505C55.6758 8.45902 56.088 7.7912 56.6157 7.24705C57.1598 6.68642 57.8111 6.25769 58.5696 5.96089C59.3282 5.66408 60.1774 5.51568 61.1172 5.51568ZM60.9936 8.03854C60.367 8.03854 59.8806 8.24466 59.5343 8.65689C59.2045 9.05263 59.0396 9.60503 59.0396 10.3141H62.5518C62.5848 10.1822 62.6013 10.042 62.6013 9.89359C62.6013 9.36593 62.4611 8.92896 62.1808 8.58269C61.9005 8.21992 61.5047 8.03854 60.9936 8.03854Z" fill="#FCFDFF"/>
            <path d="M68.7508 17.8827V6.26302C68.7508 5.98687 68.9746 5.76302 69.2508 5.76302H72.5598V7.34599C72.9391 6.68642 73.4255 6.21647 74.0191 5.93615C74.6292 5.65584 75.2723 5.51568 75.9484 5.51568C76.7563 5.51568 77.4406 5.68881 78.0013 6.03509C78.5619 6.36488 79.0154 6.81009 79.3616 7.37072C79.7244 7.93136 79.98 8.58269 80.1284 9.32471C80.2933 10.0502 80.3757 10.817 80.3757 11.625V17.8827H76.4183V11.5508C76.4183 10.5449 76.2617 9.81114 75.9484 9.34944C75.6351 8.87125 75.1569 8.63216 74.5138 8.63216C74.1015 8.63216 73.7388 8.72285 73.4255 8.90423C73.2718 8.99813 73.1336 9.10308 73.0109 9.21907C72.7904 9.42751 72.7082 9.73449 72.7082 10.0379V17.8827H68.7508Z" fill="#FCFDFF"/>
            <path d="M82.0596 5.76302H83.4146C83.6908 5.76302 83.9146 5.53916 83.9146 5.26302V2.59707H87.8721V5.76302H91.3596V8.78056H88.3721C88.0959 8.78056 87.8721 9.00442 87.8721 9.28056V13.5295C87.8721 14.0077 87.971 14.3869 88.1689 14.6672C88.3832 14.9311 88.7625 15.063 89.3066 15.063C89.6034 15.063 89.9002 15.0465 90.1971 15.0135C90.5104 14.9641 90.8072 14.8981 91.0875 14.8156L91.3596 17.5611C90.9638 17.7425 90.4774 17.8827 89.9002 17.9816C89.3231 18.0805 88.746 18.13 88.1689 18.13C87.3939 18.13 86.7343 18.0146 86.1901 17.7837C85.6625 17.5364 85.2255 17.2148 84.8792 16.8191C84.5495 16.4069 84.3021 15.9287 84.1372 15.3845C83.9888 14.8239 83.9146 14.2303 83.9146 13.6037V8.78056H82.0596V5.76302Z" fill="#FCFDFF"/>
        </symbol>
        <symbol id="compass" viewBox="0 0 32 32">
            <path d="M16 0c-8.837 0-16 7.163-16 16s7.163 16 16 16 16-7.163 16-16-7.163-16-16-16zM3 16c0-7.18 5.82-13 13-13 3.424 0 6.538 1.325 8.86 3.488l-12.86 5.512-5.512 12.86c-2.164-2.322-3.488-5.436-3.488-8.86zM18.286 18.286l-8.003 3.43 3.43-8.003 4.573 4.573zM16 29c-3.424 0-6.539-1.325-8.86-3.488l12.86-5.512 5.512-12.86c2.164 2.322 3.488 5.436 3.488 8.86 0 7.18-5.82 13-13 13z"></path>
        </symbol>
    </defs>
</svg>