<svg width="707" height="567" viewBox="0 0 707 567" fill="none" xmlns="http://www.w3.org/2000/svg">
<path d="M375.964 405.15L398.172 338.105C399.806 333.173 405.634 331.082 410.03 333.851L476.43 375.674C479.511 377.615 480.893 381.393 479.791 384.864L472.425 408.068C471.675 410.428 469.875 412.309 467.548 413.16L430.614 426.672C429.226 427.18 427.725 427.294 426.276 427L390.905 419.83C390.249 419.697 389.612 419.482 389.01 419.191L380.073 414.867C376.459 413.118 374.701 408.961 375.964 405.15Z" fill="#FFCE7F"/>
<path d="M387.501 320.266L358.859 298.32C355.11 295.447 349.701 296.431 347.204 300.44L332.747 323.646C332.289 324.382 331.714 325.038 331.045 325.59L292.394 357.445C288.419 360.721 288.531 366.845 292.622 369.973L310.472 383.624C310.958 383.995 311.485 384.31 312.043 384.561L356.252 404.499C360.59 406.455 365.665 404.216 367.145 399.694L390.239 329.104C391.295 325.875 390.198 322.332 387.501 320.266Z" fill="#FF8B80"/>
<path d="M409.029 310.311L426.35 266.816C428.249 262.048 434.081 260.276 438.311 263.18L497.533 303.84C499.067 304.894 500.186 306.449 500.698 308.238L502.365 314.075C502.802 315.602 502.774 317.223 502.285 318.734L489.56 358.104C487.942 363.109 482.017 365.218 477.601 362.36L412.116 319.987C408.909 317.912 407.616 313.859 409.029 310.311Z" fill="#FEF38F"/>
<path d="M409.029 310.311L426.35 266.816C428.249 262.048 434.081 260.276 438.311 263.18L497.533 303.84C499.067 304.894 500.186 306.449 500.698 308.238L502.365 314.075C502.802 315.602 502.774 317.223 502.285 318.734L489.56 358.104C487.942 363.109 482.017 365.218 477.601 362.36L412.116 319.987C408.909 317.912 407.616 313.859 409.029 310.311Z" fill="#FFBC7E"/>
<path d="M440.736 224.347L435.877 247.024C435.194 250.212 436.514 253.496 439.214 255.324L483.443 285.274C489.544 289.406 497.513 283.79 495.675 276.655L484.342 232.655C483.648 229.961 481.606 227.822 478.948 227.004L450.911 218.377C446.425 216.997 441.72 219.758 440.736 224.347Z" fill="#FEF38F"/>
<path d="M440.736 224.347L435.877 247.024C435.194 250.212 436.514 253.496 439.214 255.324L483.443 285.274C489.544 289.406 497.513 283.79 495.675 276.655L484.342 232.655C483.648 229.961 481.606 227.822 478.948 227.004L450.911 218.377C446.425 216.997 441.72 219.758 440.736 224.347Z" fill="#FFBC7E"/>
<path d="M440.736 224.347L435.877 247.024C435.194 250.212 436.514 253.496 439.214 255.324L483.443 285.274C489.544 289.406 497.513 283.79 495.675 276.655L484.342 232.655C483.648 229.961 481.606 227.822 478.948 227.004L450.911 218.377C446.425 216.997 441.72 219.758 440.736 224.347Z" fill="#FF8181"/>
<path d="M321.816 220.566L308.699 242.537C306.368 246.441 307.756 251.5 311.751 253.669L358.633 279.119C358.985 279.31 359.322 279.527 359.641 279.768L393.492 305.363C397.718 308.558 403.826 306.838 405.763 301.907L421.903 260.823C423.524 256.697 421.481 252.04 417.348 250.438L331.575 217.207C327.939 215.798 323.816 217.217 321.816 220.566Z" fill="#FF6B6B"/>
<path d="M417.989 243.019L356.836 218.763C349.6 215.893 350.309 205.428 357.866 203.56L378.232 198.526C379.404 198.236 380.626 198.216 381.807 198.465L426.506 207.921C430.786 208.826 433.546 213.003 432.699 217.295L428.788 237.131C427.82 242.037 422.638 244.863 417.989 243.019Z" fill="#FEF38F"/>
<path d="M417.989 243.019L356.836 218.763C349.6 215.893 350.309 205.428 357.866 203.56L378.232 198.526C379.404 198.236 380.626 198.216 381.807 198.465L426.506 207.921C430.786 208.826 433.546 213.003 432.699 217.295L428.788 237.131C427.82 242.037 422.638 244.863 417.989 243.019Z" fill="#FFBC7E"/>
<path d="M417.989 243.019L356.836 218.763C349.6 215.893 350.309 205.428 357.866 203.56L378.232 198.526C379.404 198.236 380.626 198.216 381.807 198.465L426.506 207.921C430.786 208.826 433.546 213.003 432.699 217.295L428.788 237.131C427.82 242.037 422.638 244.863 417.989 243.019Z" fill="#FF8181"/>
<path d="M506.326 329.119L492.585 368.32C491.633 371.036 492.214 374.055 494.106 376.225L590.259 486.46C592.622 489.17 596.502 489.97 599.745 488.416L619.279 479.056L642.622 470.613C643.389 470.335 644.109 469.942 644.758 469.447L678.64 443.565C680.349 442.259 681.46 440.321 681.723 438.187L690.232 369.224C690.775 364.824 687.637 360.822 683.235 360.3L629.705 353.949L515.91 324.028C511.876 322.968 507.705 325.184 506.326 329.119Z" fill="#FEF38F"/>
<path d="M506.326 329.119L492.585 368.32C491.633 371.036 492.214 374.055 494.106 376.225L590.259 486.46C592.622 489.17 596.502 489.97 599.745 488.416L619.279 479.056L642.622 470.613C643.389 470.335 644.109 469.942 644.758 469.447L678.64 443.565C680.349 442.259 681.46 440.321 681.723 438.187L690.232 369.224C690.775 364.824 687.637 360.822 683.235 360.3L629.705 353.949L515.91 324.028C511.876 322.968 507.705 325.184 506.326 329.119Z" fill="#FFBC7E"/>
<path d="M581.9 496.314L497.687 397.627C493.634 392.878 485.945 394.395 484 400.328L479.176 415.039C478.439 417.288 476.743 419.095 474.546 419.974L435.87 435.445C434.456 436.01 432.909 436.16 431.412 435.877L404.216 430.732C399.425 429.826 394.944 433.38 394.736 438.253L390.998 526.102C390.972 526.708 391.016 527.314 391.127 527.91L397.038 559.577C397.745 563.364 401.05 566.109 404.902 566.109H463.085C464.332 566.109 465.561 565.818 466.675 565.259L579.404 508.657C584.044 506.327 585.27 500.263 581.9 496.314Z" fill="#F9F28B"/>
<path d="M334.629 134.151L331.148 191C330.821 196.35 335.744 200.502 340.961 199.278L379.824 190.157C380.978 189.886 382.178 189.875 383.336 190.124L406.844 195.188C411.461 196.182 415.931 192.98 416.475 188.288L422.576 135.667C423.189 130.38 418.564 125.98 413.314 126.855L378.282 132.693C377.358 132.847 376.414 132.838 375.493 132.665L344.088 126.777C339.359 125.89 334.923 129.348 334.629 134.151Z" fill="#FF9E7E"/>
<path d="M429.894 131.082L423.088 190.63C422.609 194.823 425.47 198.667 429.623 199.412L441.969 201.628C442.366 201.699 442.758 201.801 443.141 201.931L482.217 215.275C484.2 215.952 486.37 215.824 488.259 214.918L526.221 196.729C530.88 194.496 532.233 188.497 528.982 184.481L510.551 161.713C509.398 160.289 508.769 158.512 508.769 156.679V122.682C508.769 118.263 505.187 114.682 500.769 114.682H492.761C492.313 114.682 491.866 114.719 491.424 114.794L436.505 124.102C432.994 124.698 430.298 127.543 429.894 131.082Z" fill="#FF8080"/>
<path d="M525.391 42.7272L519.161 14.5102C518.09 9.65745 521.656 5.01233 526.621 4.7933L583.798 2.27076C586.43 2.15464 588.951 3.34185 590.537 5.44508L631.219 59.3723C632.266 60.7603 632.833 62.4516 632.833 64.1902V112.013C632.833 114.943 634.435 117.639 637.008 119.039L671.816 137.986C673.247 138.764 674.404 139.963 675.133 141.419C677.467 146.087 674.756 151.701 669.649 152.776L601.107 167.206C600.712 167.289 600.324 167.402 599.946 167.544L571.322 178.278L547.44 187.233C544.259 188.426 540.672 187.48 538.493 184.874L517.504 159.769C516.242 158.26 515.581 156.34 515.646 154.374L516.836 118.254C516.985 113.734 513.322 109.99 508.8 109.99C502.967 109.99 499.035 103.949 501.471 98.6487L524.848 47.7932C525.576 46.2089 525.767 44.4299 525.391 42.7272Z" fill="#FF6C6C"/>
<path d="M325.56 89.495L338.292 11.2164C338.908 7.42928 342.126 4.61279 345.961 4.5039L497.986 0.187743C501.823 0.0787934 505.197 2.71111 506.025 6.45982L512.889 37.5533C513.26 39.232 513.08 40.9854 512.376 42.5538L485.514 102.405C484.411 104.862 482.146 106.599 479.488 107.027L375.183 123.835C374.24 123.987 373.278 123.969 372.341 123.781L336.884 116.69C333.923 116.097 331.547 113.888 330.742 110.978L325.745 92.912C325.438 91.7997 325.374 90.6341 325.56 89.495Z" fill="#FF7474"/>
<path d="M603.012 175.92L557.759 193.851C552.969 195.749 551.196 201.615 554.133 205.849L601.556 274.193L635.591 337.823C636.805 340.093 639.036 341.64 641.588 341.98L692.159 348.723C696.534 349.306 700.555 346.236 701.145 341.862L706.213 304.273C706.293 303.683 706.306 303.085 706.253 302.492L695.511 182.277C695.428 181.355 695.187 180.455 694.796 179.616L687.644 164.239C686.073 160.861 682.379 159.015 678.735 159.786L604.303 175.531C603.863 175.624 603.431 175.755 603.012 175.92Z" fill="#FFCD7F"/>
<path d="M533.989 205.095L496.052 222.878C492.549 224.52 490.723 228.433 491.714 232.172L511.746 307.746C512.483 310.528 514.658 312.699 517.441 313.432L611.742 338.27C618.531 340.058 624.166 332.86 620.801 326.699L595.822 280.969L543.912 207.713C541.674 204.555 537.495 203.452 533.989 205.095Z" fill="#FF8080"/>
<path d="M22.6583 430.246L39.692 434.505C42.807 435.283 46.0857 434.124 48.0192 431.561L159.419 283.869C159.826 283.328 160.301 282.841 160.832 282.42L205.532 246.937C208.486 244.591 209.401 240.501 207.727 237.121L184.742 190.71C183.932 189.074 182.587 187.764 180.93 186.998L127.48 162.294C123.987 160.68 119.841 161.78 117.608 164.913L90.7136 202.653C89.6923 204.086 88.2268 205.142 86.5443 205.658L54.2666 215.557C51.6378 216.363 49.6073 218.463 48.8895 221.117L0.991004 398.241C0.36385 400.561 0.812158 403.039 2.21204 404.991L18.097 427.147C19.202 428.688 20.8186 429.786 22.6583 430.246Z" fill="#FF9F7E"/>
<path d="M328.602 318.314L341.969 295.4C344.245 291.497 342.841 286.486 338.869 284.334L285.359 255.35C284.189 254.716 282.879 254.384 281.548 254.384H218.053C216.262 254.384 214.523 254.985 213.114 256.091L174.504 286.398C170.527 289.519 170.407 295.502 174.256 298.78L235.469 350.925C236.589 351.88 237.951 352.506 239.404 352.737L276.362 358.596C278.629 358.955 280.94 358.324 282.71 356.862L326.787 320.451C327.513 319.851 328.128 319.128 328.602 318.314Z" fill="#FEF38F"/>
<path d="M328.602 318.314L341.969 295.4C344.245 291.497 342.841 286.486 338.869 284.334L285.359 255.35C284.189 254.716 282.879 254.384 281.548 254.384H218.053C216.262 254.384 214.523 254.985 213.114 256.091L174.504 286.398C170.527 289.519 170.407 295.502 174.256 298.78L235.469 350.925C236.589 351.88 237.951 352.506 239.404 352.737L276.362 358.596C278.629 358.955 280.94 358.324 282.71 356.862L326.787 320.451C327.513 319.851 328.128 319.128 328.602 318.314Z" fill="#FFBC7E"/>
<path d="M214.496 501.872L296.724 397.433C299.514 393.889 298.825 388.74 295.2 386.055L275.199 371.239C274.195 370.495 273.03 369.997 271.799 369.784L233.593 363.181C232.189 362.938 230.874 362.324 229.786 361.403L166.525 307.838C163.005 304.859 157.703 305.463 154.944 309.158L52.6969 446.122C50.0721 449.638 50.7691 454.612 54.2592 457.271L66.6999 466.75C68.6859 468.263 69.8515 470.617 69.8515 473.113V479.906C69.8515 483.669 72.4746 486.923 76.1521 487.723L77.9827 488.121C80.4148 488.65 82.9545 488.016 84.8535 486.407L114.634 461.176C117.423 458.814 121.457 458.641 124.437 460.757L170.436 493.417C171.141 493.917 171.923 494.3 172.751 494.551L205.893 504.58C209.044 505.534 212.459 504.459 214.496 501.872Z" fill="#FF9B7E"/>
<path d="M379.757 424.167L318.98 396.663C315.635 395.149 311.689 396.106 309.41 398.985L229.304 500.147C225.816 504.552 227.836 511.084 233.2 512.753L349.431 548.903C352.488 549.854 354.683 552.535 355.013 555.719L355.291 558.411C355.713 562.489 359.149 565.588 363.249 565.588H377.283C382.247 565.588 386.013 561.113 385.165 556.221L380.162 527.356C380.063 526.782 380.026 526.198 380.053 525.615L384.45 431.83C384.603 428.556 382.743 425.519 379.757 424.167Z" fill="#FFC27F"/>
<path d="M129.472 145.704L130.176 125.994C130.267 123.468 131.546 121.133 133.626 119.696L289.96 11.7755C291.237 10.8944 292.742 10.4033 294.292 10.362L321.351 9.64038C326.367 9.50663 330.266 13.9695 329.461 18.9219L317.232 94.1047C317.038 95.2962 317.117 96.516 317.461 97.6729L321.836 112.36C323.142 116.743 320.514 121.326 316.071 122.414L202.867 150.128C200.214 150.777 198.075 152.736 197.195 155.323L192.533 169.035C191.031 173.455 186.079 175.654 181.793 173.807L134.301 153.336C131.272 152.03 129.355 149 129.472 145.704Z" fill="#FEF38F"/>
<path d="M289.68 242.916H228.553C225.533 242.916 222.771 241.216 221.41 238.52L196.421 188.996C195.483 187.137 195.307 184.985 195.93 182.997L201.939 163.846C202.782 161.158 204.977 159.111 207.718 158.458L315.172 132.852C320.435 131.598 325.399 135.82 325.005 141.215L320.198 207.209C320.111 208.409 319.753 209.574 319.153 210.618L301.284 241.676C299.58 244.638 295.766 245.606 292.856 243.815C291.9 243.227 290.801 242.916 289.68 242.916Z" fill="#FFBE7F"/>
<path d="M372.714 268.852V258.006L370.052 258.93L369.26 256.158L374.232 254.2H376.278V268.852H372.714ZM382.605 251.736C383.147 251.736 383.624 251.824 384.035 252C384.46 252.161 384.819 252.389 385.113 252.682C385.406 252.975 385.626 253.327 385.773 253.738C385.934 254.134 386.015 254.567 386.015 255.036C386.015 255.476 385.949 255.938 385.817 256.422H381.373C381.402 256.95 381.578 257.324 381.901 257.544C382.238 257.749 382.656 257.852 383.155 257.852C383.536 257.852 383.917 257.823 384.299 257.764C384.68 257.705 385.061 257.603 385.443 257.456L385.795 259.194C385.355 259.399 384.863 259.553 384.321 259.656C383.778 259.744 383.243 259.788 382.715 259.788C382.069 259.788 381.483 259.7 380.955 259.524C380.427 259.348 379.972 259.091 379.591 258.754C379.224 258.402 378.931 257.984 378.711 257.5C378.505 257.001 378.403 256.444 378.403 255.828C378.403 255.227 378.498 254.677 378.689 254.178C378.879 253.679 379.151 253.247 379.503 252.88C379.869 252.513 380.309 252.235 380.823 252.044C381.351 251.839 381.945 251.736 382.605 251.736ZM382.561 253.408C382.209 253.408 381.93 253.54 381.725 253.804C381.519 254.068 381.409 254.398 381.395 254.794H383.485C383.543 254.413 383.499 254.09 383.353 253.826C383.206 253.547 382.942 253.408 382.561 253.408ZM393.183 254.398H392.809C392.384 254.398 391.973 254.457 391.577 254.574C391.181 254.677 390.844 254.875 390.565 255.168V259.612H387.617V251.912H390.477V253.474C390.624 252.961 390.866 252.565 391.203 252.286C391.555 251.993 391.966 251.846 392.435 251.846C392.758 251.846 393.022 251.883 393.227 251.956L393.183 254.398Z" fill="#FAFAF7"/>
<path d="M390.41 210.285C391.686 209.508 393.065 209.119 394.546 209.119C395.221 209.119 395.851 209.222 396.438 209.427C397.025 209.618 397.531 209.904 397.956 210.285C398.396 210.652 398.741 211.114 398.99 211.671C399.239 212.228 399.364 212.859 399.364 213.563C399.364 214.135 399.291 214.67 399.144 215.169C398.997 215.668 398.792 216.144 398.528 216.599C398.279 217.039 397.985 217.464 397.648 217.875C397.311 218.271 396.959 218.66 396.592 219.041C396.196 219.452 395.785 219.848 395.36 220.229C394.949 220.596 394.575 220.926 394.238 221.219H399.452V224.035H390.124L389.596 222.011C389.992 221.6 390.344 221.241 390.652 220.933C390.96 220.61 391.246 220.31 391.51 220.031C391.789 219.752 392.053 219.481 392.302 219.217C392.551 218.953 392.815 218.667 393.094 218.359C393.402 218.022 393.717 217.677 394.04 217.325C394.363 216.958 394.649 216.584 394.898 216.203C395.162 215.822 395.375 215.44 395.536 215.059C395.712 214.678 395.8 214.296 395.8 213.915C395.8 213.328 395.624 212.859 395.272 212.507C394.92 212.155 394.429 211.979 393.798 211.979C393.343 211.979 392.918 212.045 392.522 212.177C392.126 212.309 391.715 212.5 391.29 212.749L390.41 210.285ZM405.232 206.919C405.775 206.919 406.252 207.007 406.662 207.183C407.088 207.344 407.447 207.572 407.74 207.865C408.034 208.158 408.254 208.51 408.4 208.921C408.562 209.317 408.642 209.75 408.642 210.219C408.642 210.659 408.576 211.121 408.444 211.605H404C404.03 212.133 404.206 212.507 404.528 212.727C404.866 212.932 405.284 213.035 405.782 213.035C406.164 213.035 406.545 213.006 406.926 212.947C407.308 212.888 407.689 212.786 408.07 212.639L408.422 214.377C407.982 214.582 407.491 214.736 406.948 214.839C406.406 214.927 405.87 214.971 405.342 214.971C404.697 214.971 404.11 214.883 403.582 214.707C403.054 214.531 402.6 214.274 402.218 213.937C401.852 213.585 401.558 213.167 401.338 212.683C401.133 212.184 401.03 211.627 401.03 211.011C401.03 210.41 401.126 209.86 401.316 209.361C401.507 208.862 401.778 208.43 402.13 208.063C402.497 207.696 402.937 207.418 403.45 207.227C403.978 207.022 404.572 206.919 405.232 206.919ZM405.188 208.591C404.836 208.591 404.558 208.723 404.352 208.987C404.147 209.251 404.037 209.581 404.022 209.977H406.112C406.171 209.596 406.127 209.273 405.98 209.009C405.834 208.73 405.57 208.591 405.188 208.591Z" fill="#FAFAF7"/>
<path d="M467.527 251.831C467.527 252.505 467.388 253.107 467.109 253.635C466.83 254.163 466.449 254.617 465.965 254.999C465.496 255.365 464.938 255.651 464.293 255.857C463.648 256.047 462.958 256.143 462.225 256.143C461.492 256.143 460.773 256.062 460.069 255.901C459.38 255.754 458.764 255.563 458.221 255.329L458.793 252.755C459.218 252.945 459.673 253.107 460.157 253.239C460.656 253.356 461.191 253.415 461.763 253.415C462.511 253.415 463.068 253.261 463.435 252.953C463.802 252.63 463.985 252.197 463.985 251.655C463.985 251.009 463.714 250.555 463.171 250.291C462.628 250.012 461.932 249.873 461.081 249.873H459.651V247.101H460.487C461.543 247.101 462.335 246.932 462.863 246.595C463.406 246.243 463.677 245.773 463.677 245.187C463.677 244.732 463.516 244.373 463.193 244.109C462.885 243.83 462.423 243.691 461.807 243.691C461.426 243.691 460.993 243.749 460.509 243.867C460.04 243.969 459.614 244.123 459.233 244.329L458.639 241.865C459.255 241.557 459.878 241.329 460.509 241.183C461.154 241.036 461.858 240.963 462.621 240.963C463.296 240.963 463.919 241.051 464.491 241.227C465.063 241.388 465.547 241.63 465.943 241.953C466.354 242.261 466.669 242.642 466.889 243.097C467.124 243.537 467.241 244.028 467.241 244.571C467.241 245.363 467.006 246.081 466.537 246.727C466.082 247.372 465.437 247.885 464.601 248.267C464.997 248.399 465.371 248.567 465.723 248.773C466.075 248.978 466.383 249.227 466.647 249.521C466.911 249.814 467.124 250.151 467.285 250.533C467.446 250.914 467.527 251.347 467.527 251.831ZM473.251 238.763C473.793 238.763 474.27 238.851 474.681 239.027C475.106 239.188 475.465 239.415 475.759 239.709C476.052 240.002 476.272 240.354 476.419 240.765C476.58 241.161 476.661 241.593 476.661 242.063C476.661 242.503 476.595 242.965 476.463 243.449H472.019C472.048 243.977 472.224 244.351 472.547 244.571C472.884 244.776 473.302 244.879 473.801 244.879C474.182 244.879 474.563 244.849 474.945 244.791C475.326 244.732 475.707 244.629 476.089 244.483L476.441 246.221C476.001 246.426 475.509 246.58 474.967 246.683C474.424 246.771 473.889 246.815 473.361 246.815C472.715 246.815 472.129 246.727 471.601 246.551C471.073 246.375 470.618 246.118 470.237 245.781C469.87 245.429 469.577 245.011 469.357 244.527C469.151 244.028 469.049 243.471 469.049 242.855C469.049 242.253 469.144 241.703 469.335 241.205C469.525 240.706 469.797 240.273 470.149 239.907C470.515 239.54 470.955 239.261 471.469 239.071C471.997 238.865 472.591 238.763 473.251 238.763ZM473.207 240.435C472.855 240.435 472.576 240.567 472.371 240.831C472.165 241.095 472.055 241.425 472.041 241.821H474.131C474.189 241.439 474.145 241.117 473.999 240.853C473.852 240.574 473.588 240.435 473.207 240.435Z" fill="#FAFAF7"/>
<path d="M458.334 316.068V319.566H454.902V316.068H449.182L448.698 313.494L454.132 304.914H458.334V313.384H460.27V316.068H458.334ZM454.902 307.95L451.844 313.384H454.902V307.95ZM465.555 302.45C466.098 302.45 466.575 302.538 466.985 302.714C467.411 302.875 467.77 303.103 468.063 303.396C468.357 303.689 468.577 304.041 468.723 304.452C468.885 304.848 468.965 305.281 468.965 305.75C468.965 306.19 468.899 306.652 468.767 307.136H464.323C464.353 307.664 464.529 308.038 464.851 308.258C465.189 308.463 465.607 308.566 466.105 308.566C466.487 308.566 466.868 308.537 467.249 308.478C467.631 308.419 468.012 308.317 468.393 308.17L468.745 309.908C468.305 310.113 467.814 310.267 467.271 310.37C466.729 310.458 466.193 310.502 465.665 310.502C465.02 310.502 464.433 310.414 463.905 310.238C463.377 310.062 462.923 309.805 462.541 309.468C462.175 309.116 461.881 308.698 461.661 308.214C461.456 307.715 461.353 307.158 461.353 306.542C461.353 305.941 461.449 305.391 461.639 304.892C461.83 304.393 462.101 303.961 462.453 303.594C462.82 303.227 463.26 302.949 463.773 302.758C464.301 302.553 464.895 302.45 465.555 302.45ZM465.511 304.122C465.159 304.122 464.881 304.254 464.675 304.518C464.47 304.782 464.36 305.112 464.345 305.508H466.435C466.494 305.127 466.45 304.804 466.303 304.54C466.157 304.261 465.893 304.122 465.511 304.122Z" fill="#FAFAF7"/>
<path d="M429.135 390.493C429.135 391.256 428.981 391.938 428.673 392.539C428.379 393.126 427.976 393.625 427.463 394.035C426.949 394.446 426.341 394.761 425.637 394.981C424.933 395.201 424.177 395.311 423.371 395.311C422.696 395.311 422.014 395.245 421.325 395.113C420.65 394.981 420.085 394.82 419.631 394.629L420.093 391.989C420.562 392.165 421.053 392.312 421.567 392.429C422.095 392.532 422.615 392.583 423.129 392.583C423.935 392.583 424.566 392.422 425.021 392.099C425.475 391.777 425.703 391.307 425.703 390.691C425.703 390.339 425.622 390.046 425.461 389.811C425.299 389.562 425.079 389.364 424.801 389.217C424.537 389.071 424.221 388.968 423.855 388.909C423.503 388.851 423.129 388.821 422.733 388.821H420.445V380.395H428.343V383.211H423.767V386.093H424.119C424.808 386.093 425.453 386.189 426.055 386.379C426.671 386.57 427.206 386.856 427.661 387.237C428.115 387.604 428.475 388.059 428.739 388.601C429.003 389.144 429.135 389.775 429.135 390.493ZM434.803 377.931C435.346 377.931 435.822 378.019 436.233 378.195C436.658 378.357 437.018 378.584 437.311 378.877C437.604 379.171 437.824 379.523 437.971 379.933C438.132 380.329 438.213 380.762 438.213 381.231C438.213 381.671 438.147 382.133 438.015 382.617H433.571C433.6 383.145 433.776 383.519 434.099 383.739C434.436 383.945 434.854 384.047 435.353 384.047C435.734 384.047 436.116 384.018 436.497 383.959C436.878 383.901 437.26 383.798 437.641 383.651L437.993 385.389C437.553 385.595 437.062 385.749 436.519 385.851C435.976 385.939 435.441 385.983 434.913 385.983C434.268 385.983 433.681 385.895 433.153 385.719C432.625 385.543 432.17 385.287 431.789 384.949C431.422 384.597 431.129 384.179 430.909 383.695C430.704 383.197 430.601 382.639 430.601 382.023C430.601 381.422 430.696 380.872 430.887 380.373C431.078 379.875 431.349 379.442 431.701 379.075C432.068 378.709 432.508 378.43 433.021 378.239C433.549 378.034 434.143 377.931 434.803 377.931ZM434.759 379.603C434.407 379.603 434.128 379.735 433.923 379.999C433.718 380.263 433.608 380.593 433.593 380.989H435.683C435.742 380.608 435.698 380.285 435.551 380.021C435.404 379.743 435.14 379.603 434.759 379.603Z" fill="#FAFAF7"/>
<path d="M348.144 350.95C347.66 351.17 347.147 351.404 346.604 351.654C346.076 351.903 345.57 352.204 345.086 352.556C344.602 352.908 344.169 353.318 343.788 353.788C343.407 354.257 343.121 354.807 342.93 355.438C343.253 355.115 343.656 354.866 344.14 354.69C344.624 354.514 345.123 354.426 345.636 354.426C346.223 354.426 346.773 354.521 347.286 354.712C347.799 354.902 348.247 355.181 348.628 355.548C349.024 355.914 349.332 356.369 349.552 356.912C349.772 357.44 349.882 358.041 349.882 358.716C349.882 359.376 349.75 359.999 349.486 360.586C349.237 361.158 348.885 361.664 348.43 362.104C347.99 362.529 347.462 362.866 346.846 363.116C346.245 363.35 345.592 363.468 344.888 363.468C343.935 363.468 343.106 363.299 342.402 362.962C341.713 362.61 341.141 362.155 340.686 361.598C340.231 361.04 339.894 360.41 339.674 359.706C339.469 359.002 339.366 358.29 339.366 357.572C339.366 355.328 340.041 353.428 341.39 351.874C342.754 350.304 344.646 349.109 347.066 348.288L348.144 350.95ZM346.604 358.87C346.604 358.327 346.443 357.894 346.12 357.572C345.812 357.249 345.379 357.088 344.822 357.088C344.411 357.088 344.03 357.168 343.678 357.33C343.341 357.491 343.069 357.674 342.864 357.88C342.864 358.246 342.893 358.606 342.952 358.958C343.025 359.31 343.128 359.625 343.26 359.904C343.407 360.168 343.605 360.388 343.854 360.564C344.103 360.725 344.419 360.806 344.8 360.806C345.328 360.806 345.761 360.63 346.098 360.278C346.435 359.911 346.604 359.442 346.604 358.87ZM355.399 346.088C355.942 346.088 356.419 346.176 356.829 346.352C357.255 346.513 357.614 346.74 357.907 347.034C358.201 347.327 358.421 347.679 358.567 348.09C358.729 348.486 358.809 348.918 358.809 349.388C358.809 349.828 358.743 350.29 358.611 350.774H354.167C354.197 351.302 354.373 351.676 354.695 351.896C355.033 352.101 355.451 352.204 355.949 352.204C356.331 352.204 356.712 352.174 357.093 352.116C357.475 352.057 357.856 351.954 358.237 351.808L358.589 353.546C358.149 353.751 357.658 353.905 357.115 354.008C356.573 354.096 356.037 354.14 355.509 354.14C354.864 354.14 354.277 354.052 353.749 353.876C353.221 353.7 352.767 353.443 352.385 353.106C352.019 352.754 351.725 352.336 351.505 351.852C351.3 351.353 351.197 350.796 351.197 350.18C351.197 349.578 351.293 349.028 351.483 348.53C351.674 348.031 351.945 347.598 352.297 347.232C352.664 346.865 353.104 346.586 353.617 346.396C354.145 346.19 354.739 346.088 355.399 346.088ZM355.355 347.76C355.003 347.76 354.725 347.892 354.519 348.156C354.314 348.42 354.204 348.75 354.189 349.146H356.279C356.338 348.764 356.294 348.442 356.147 348.178C356.001 347.899 355.737 347.76 355.355 347.76Z" fill="#FAFAF7"/>
<path d="M256.437 302.968L250.937 314.848H247.417L253.049 303.012H247.153V300.196H255.953L256.437 302.968ZM261.774 297.732C262.316 297.732 262.793 297.82 263.204 297.996C263.629 298.158 263.988 298.385 264.282 298.678C264.575 298.972 264.795 299.324 264.942 299.734C265.103 300.13 265.184 300.563 265.184 301.032C265.184 301.472 265.118 301.934 264.986 302.418H260.542C260.571 302.946 260.747 303.32 261.07 303.54C261.407 303.746 261.825 303.848 262.324 303.848C262.705 303.848 263.086 303.819 263.468 303.76C263.849 303.702 264.23 303.599 264.612 303.452L264.964 305.19C264.524 305.396 264.032 305.55 263.49 305.652C262.947 305.74 262.412 305.784 261.884 305.784C261.238 305.784 260.652 305.696 260.124 305.52C259.596 305.344 259.141 305.088 258.76 304.75C258.393 304.398 258.1 303.98 257.88 303.496C257.674 302.998 257.572 302.44 257.572 301.824C257.572 301.223 257.667 300.673 257.858 300.174C258.048 299.676 258.32 299.243 258.672 298.876C259.038 298.51 259.478 298.231 259.992 298.04C260.52 297.835 261.114 297.732 261.774 297.732ZM261.73 299.404C261.378 299.404 261.099 299.536 260.894 299.8C260.688 300.064 260.578 300.394 260.564 300.79H262.654C262.712 300.409 262.668 300.086 262.522 299.822C262.375 299.544 262.111 299.404 261.73 299.404Z" fill="#FAFAF7"/>
<path d="M264.337 183.172C265.027 183.172 265.657 183.26 266.229 183.436C266.816 183.598 267.315 183.832 267.725 184.14C268.136 184.448 268.451 184.83 268.671 185.284C268.906 185.724 269.023 186.23 269.023 186.802C269.023 187.184 268.95 187.543 268.803 187.88C268.671 188.218 268.495 188.533 268.275 188.826C268.055 189.105 267.799 189.369 267.505 189.618C267.227 189.868 266.933 190.102 266.625 190.322C266.977 190.557 267.322 190.814 267.659 191.092C267.997 191.356 268.297 191.65 268.561 191.972C268.825 192.295 269.031 192.654 269.177 193.05C269.339 193.432 269.419 193.864 269.419 194.348C269.419 194.906 269.287 195.434 269.023 195.932C268.759 196.416 268.4 196.842 267.945 197.208C267.491 197.56 266.955 197.839 266.339 198.044C265.723 198.25 265.056 198.352 264.337 198.352C262.739 198.352 261.492 197.993 260.597 197.274C259.703 196.556 259.255 195.595 259.255 194.392C259.255 193.952 259.336 193.549 259.497 193.182C259.659 192.816 259.864 192.478 260.113 192.17C260.377 191.848 260.671 191.554 260.993 191.29C261.331 191.026 261.675 190.77 262.027 190.52C261.675 190.271 261.353 190.022 261.059 189.772C260.781 189.508 260.531 189.237 260.311 188.958C260.106 188.68 259.945 188.379 259.827 188.056C259.71 187.734 259.651 187.382 259.651 187C259.651 186.443 259.761 185.93 259.981 185.46C260.201 184.991 260.509 184.588 260.905 184.25C261.316 183.913 261.807 183.649 262.379 183.458C262.966 183.268 263.619 183.172 264.337 183.172ZM266.119 194.326C266.119 194.106 266.083 193.908 266.009 193.732C265.951 193.556 265.841 193.388 265.679 193.226C265.533 193.05 265.335 192.874 265.085 192.698C264.851 192.508 264.557 192.288 264.205 192.038C263.692 192.42 263.289 192.772 262.995 193.094C262.702 193.417 262.555 193.828 262.555 194.326C262.555 194.81 262.709 195.184 263.017 195.448C263.34 195.712 263.78 195.844 264.337 195.844C264.865 195.844 265.291 195.698 265.613 195.404C265.951 195.111 266.119 194.752 266.119 194.326ZM262.885 186.934C262.885 187.096 262.9 187.25 262.929 187.396C262.973 187.528 263.047 187.668 263.149 187.814C263.267 187.961 263.421 188.115 263.611 188.276C263.802 188.438 264.051 188.628 264.359 188.848C264.785 188.54 265.129 188.24 265.393 187.946C265.657 187.638 265.789 187.301 265.789 186.934C265.789 186.509 265.65 186.194 265.371 185.988C265.093 185.768 264.748 185.658 264.337 185.658C263.912 185.658 263.56 185.776 263.281 186.01C263.017 186.245 262.885 186.553 262.885 186.934ZM275.179 180.972C275.722 180.972 276.198 181.06 276.609 181.236C277.034 181.398 277.394 181.625 277.687 181.918C277.98 182.212 278.2 182.564 278.347 182.974C278.508 183.37 278.589 183.803 278.589 184.272C278.589 184.712 278.523 185.174 278.391 185.658H273.947C273.976 186.186 274.152 186.56 274.475 186.78C274.812 186.986 275.23 187.088 275.729 187.088C276.11 187.088 276.492 187.059 276.873 187C277.254 186.942 277.636 186.839 278.017 186.692L278.369 188.43C277.929 188.636 277.438 188.79 276.895 188.892C276.352 188.98 275.817 189.024 275.289 189.024C274.644 189.024 274.057 188.936 273.529 188.76C273.001 188.584 272.546 188.328 272.165 187.99C271.798 187.638 271.505 187.22 271.285 186.736C271.08 186.238 270.977 185.68 270.977 185.064C270.977 184.463 271.072 183.913 271.263 183.414C271.454 182.916 271.725 182.483 272.077 182.116C272.444 181.75 272.884 181.471 273.397 181.28C273.925 181.075 274.519 180.972 275.179 180.972ZM275.135 182.644C274.783 182.644 274.504 182.776 274.299 183.04C274.094 183.304 273.984 183.634 273.969 184.03H276.059C276.118 183.649 276.074 183.326 275.927 183.062C275.78 182.784 275.516 182.644 275.135 182.644Z" fill="#FAFAF7"/>
<path d="M374.017 169.744C374.501 169.524 375.007 169.289 375.535 169.04C376.078 168.79 376.591 168.49 377.075 168.138C377.559 167.786 377.992 167.382 378.373 166.928C378.754 166.458 379.04 165.901 379.231 165.256C378.864 165.593 378.439 165.85 377.955 166.026C377.471 166.187 376.994 166.268 376.525 166.268C375.938 166.268 375.388 166.172 374.875 165.982C374.362 165.791 373.907 165.512 373.511 165.146C373.13 164.779 372.829 164.332 372.609 163.804C372.389 163.261 372.279 162.652 372.279 161.978C372.279 161.2 372.411 160.518 372.675 159.932C372.954 159.33 373.32 158.832 373.775 158.436C374.244 158.04 374.787 157.739 375.403 157.534C376.019 157.328 376.672 157.226 377.361 157.226C378.314 157.226 379.136 157.402 379.825 157.754C380.514 158.091 381.079 158.538 381.519 159.096C381.959 159.653 382.282 160.284 382.487 160.988C382.692 161.692 382.795 162.403 382.795 163.122C382.795 165.366 382.113 167.272 380.749 168.842C379.4 170.396 377.515 171.584 375.095 172.406L374.017 169.744ZM375.557 161.824C375.557 162.366 375.711 162.799 376.019 163.122C376.342 163.444 376.782 163.606 377.339 163.606C377.75 163.606 378.124 163.525 378.461 163.364C378.813 163.202 379.092 163.019 379.297 162.814C379.297 162.447 379.26 162.088 379.187 161.736C379.128 161.384 379.026 161.076 378.879 160.812C378.747 160.533 378.556 160.313 378.307 160.152C378.058 159.976 377.742 159.888 377.361 159.888C376.833 159.888 376.4 160.071 376.063 160.438C375.726 160.79 375.557 161.252 375.557 161.824ZM388.508 155.026C389.051 155.026 389.528 155.114 389.938 155.29C390.364 155.451 390.723 155.678 391.016 155.972C391.31 156.265 391.53 156.617 391.676 157.028C391.838 157.424 391.918 157.856 391.918 158.326C391.918 158.766 391.852 159.228 391.72 159.712H387.276C387.306 160.24 387.482 160.614 387.804 160.834C388.142 161.039 388.56 161.142 389.058 161.142C389.44 161.142 389.821 161.112 390.202 161.054C390.584 160.995 390.965 160.892 391.346 160.746L391.698 162.484C391.258 162.689 390.767 162.843 390.224 162.946C389.682 163.034 389.146 163.078 388.618 163.078C387.973 163.078 387.386 162.99 386.858 162.814C386.33 162.638 385.876 162.381 385.494 162.044C385.128 161.692 384.834 161.274 384.614 160.79C384.409 160.291 384.306 159.734 384.306 159.118C384.306 158.516 384.402 157.966 384.592 157.468C384.783 156.969 385.054 156.536 385.406 156.17C385.773 155.803 386.213 155.524 386.726 155.334C387.254 155.128 387.848 155.026 388.508 155.026ZM388.464 156.698C388.112 156.698 387.834 156.83 387.628 157.094C387.423 157.358 387.313 157.688 387.298 158.084H389.388C389.447 157.702 389.403 157.38 389.256 157.116C389.11 156.837 388.846 156.698 388.464 156.698Z" fill="#FAFAF7"/>
<path d="M455.272 175.68V164.834L452.61 165.758L451.818 162.986L456.79 161.028H458.836V175.68H455.272ZM473.39 168.354C473.39 169.483 473.265 170.517 473.016 171.456C472.767 172.38 472.393 173.179 471.894 173.854C471.395 174.514 470.772 175.027 470.024 175.394C469.276 175.761 468.411 175.944 467.428 175.944C466.431 175.944 465.558 175.761 464.81 175.394C464.077 175.027 463.461 174.514 462.962 173.854C462.463 173.179 462.089 172.38 461.84 171.456C461.591 170.517 461.466 169.483 461.466 168.354C461.466 167.225 461.591 166.198 461.84 165.274C462.089 164.335 462.463 163.536 462.962 162.876C463.461 162.201 464.077 161.681 464.81 161.314C465.558 160.947 466.431 160.764 467.428 160.764C468.411 160.764 469.276 160.947 470.024 161.314C470.772 161.681 471.395 162.201 471.894 162.876C472.393 163.536 472.767 164.335 473.016 165.274C473.265 166.198 473.39 167.225 473.39 168.354ZM469.826 168.354C469.826 166.799 469.643 165.619 469.276 164.812C468.924 163.991 468.308 163.58 467.428 163.58C466.548 163.58 465.925 163.991 465.558 164.812C465.206 165.619 465.03 166.799 465.03 168.354C465.03 169.909 465.206 171.097 465.558 171.918C465.925 172.725 466.548 173.128 467.428 173.128C468.308 173.128 468.924 172.725 469.276 171.918C469.643 171.097 469.826 169.909 469.826 168.354ZM479.068 158.564C479.61 158.564 480.087 158.652 480.498 158.828C480.923 158.989 481.282 159.217 481.576 159.51C481.869 159.803 482.089 160.155 482.236 160.566C482.397 160.962 482.478 161.395 482.478 161.864C482.478 162.304 482.412 162.766 482.28 163.25H477.836C477.865 163.778 478.041 164.152 478.364 164.372C478.701 164.577 479.119 164.68 479.618 164.68C479.999 164.68 480.38 164.651 480.762 164.592C481.143 164.533 481.524 164.431 481.906 164.284L482.258 166.022C481.818 166.227 481.326 166.381 480.784 166.484C480.241 166.572 479.706 166.616 479.178 166.616C478.532 166.616 477.946 166.528 477.418 166.352C476.89 166.176 476.435 165.919 476.054 165.582C475.687 165.23 475.394 164.812 475.174 164.328C474.968 163.829 474.866 163.272 474.866 162.656C474.866 162.055 474.961 161.505 475.152 161.006C475.342 160.507 475.614 160.075 475.966 159.708C476.332 159.341 476.772 159.063 477.286 158.872C477.814 158.667 478.408 158.564 479.068 158.564ZM479.024 160.236C478.672 160.236 478.393 160.368 478.188 160.632C477.982 160.896 477.872 161.226 477.858 161.622H479.948C480.006 161.241 479.962 160.918 479.816 160.654C479.669 160.375 479.405 160.236 479.024 160.236Z" fill="#FAFAF7"/>
<path d="M539.009 279.467V268.621L536.347 269.545L535.555 266.773L540.527 264.815H542.573V279.467H539.009ZM547.887 279.467V268.621L545.225 269.545L544.433 266.773L549.405 264.815H551.451V279.467H547.887ZM557.777 262.351C558.32 262.351 558.797 262.439 559.207 262.615C559.633 262.776 559.992 263.003 560.285 263.297C560.579 263.59 560.799 263.942 560.945 264.353C561.107 264.749 561.187 265.181 561.187 265.651C561.187 266.091 561.121 266.553 560.989 267.037H556.545C556.575 267.565 556.751 267.939 557.073 268.159C557.411 268.364 557.829 268.467 558.327 268.467C558.709 268.467 559.09 268.437 559.471 268.379C559.853 268.32 560.234 268.217 560.615 268.071L560.967 269.809C560.527 270.014 560.036 270.168 559.493 270.271C558.951 270.359 558.415 270.403 557.887 270.403C557.242 270.403 556.655 270.315 556.127 270.139C555.599 269.963 555.145 269.706 554.763 269.369C554.397 269.017 554.103 268.599 553.883 268.115C553.678 267.616 553.575 267.059 553.575 266.443C553.575 265.841 553.671 265.291 553.861 264.793C554.052 264.294 554.323 263.861 554.675 263.495C555.042 263.128 555.482 262.849 555.995 262.659C556.523 262.453 557.117 262.351 557.777 262.351ZM557.733 264.023C557.381 264.023 557.103 264.155 556.897 264.419C556.692 264.683 556.582 265.013 556.567 265.409H558.657C558.716 265.027 558.672 264.705 558.525 264.441C558.379 264.162 558.115 264.023 557.733 264.023Z" fill="#FAFAF7"/>
<path d="M586.564 410V399.154L583.902 400.078L583.11 397.306L588.082 395.348H590.128V410H586.564ZM593.088 396.25C594.364 395.473 595.743 395.084 597.224 395.084C597.899 395.084 598.53 395.187 599.116 395.392C599.703 395.583 600.209 395.869 600.634 396.25C601.074 396.617 601.419 397.079 601.668 397.636C601.918 398.193 602.042 398.824 602.042 399.528C602.042 400.1 601.969 400.635 601.822 401.134C601.676 401.633 601.47 402.109 601.206 402.564C600.957 403.004 600.664 403.429 600.326 403.84C599.989 404.236 599.637 404.625 599.27 405.006C598.874 405.417 598.464 405.813 598.038 406.194C597.628 406.561 597.254 406.891 596.916 407.184H602.13V410H592.802L592.274 407.976C592.67 407.565 593.022 407.206 593.33 406.898C593.638 406.575 593.924 406.275 594.188 405.996C594.467 405.717 594.731 405.446 594.98 405.182C595.23 404.918 595.494 404.632 595.772 404.324C596.08 403.987 596.396 403.642 596.718 403.29C597.041 402.923 597.327 402.549 597.576 402.168C597.84 401.787 598.053 401.405 598.214 401.024C598.39 400.643 598.478 400.261 598.478 399.88C598.478 399.293 598.302 398.824 597.95 398.472C597.598 398.12 597.107 397.944 596.476 397.944C596.022 397.944 595.596 398.01 595.2 398.142C594.804 398.274 594.394 398.465 593.968 398.714L593.088 396.25ZM607.911 392.884C608.453 392.884 608.93 392.972 609.341 393.148C609.766 393.309 610.125 393.537 610.419 393.83C610.712 394.123 610.932 394.475 611.079 394.886C611.24 395.282 611.321 395.715 611.321 396.184C611.321 396.624 611.255 397.086 611.123 397.57H606.679C606.708 398.098 606.884 398.472 607.207 398.692C607.544 398.897 607.962 399 608.461 399C608.842 399 609.223 398.971 609.605 398.912C609.986 398.853 610.367 398.751 610.749 398.604L611.101 400.342C610.661 400.547 610.169 400.701 609.627 400.804C609.084 400.892 608.549 400.936 608.021 400.936C607.375 400.936 606.789 400.848 606.261 400.672C605.733 400.496 605.278 400.239 604.897 399.902C604.53 399.55 604.237 399.132 604.017 398.648C603.811 398.149 603.709 397.592 603.709 396.976C603.709 396.375 603.804 395.825 603.995 395.326C604.185 394.827 604.457 394.395 604.809 394.028C605.175 393.661 605.615 393.383 606.129 393.192C606.657 392.987 607.251 392.884 607.911 392.884ZM607.867 394.556C607.515 394.556 607.236 394.688 607.031 394.952C606.825 395.216 606.715 395.546 606.701 395.942H608.791C608.849 395.561 608.805 395.238 608.659 394.974C608.512 394.695 608.248 394.556 607.867 394.556Z" fill="#FAFAF7"/>
<path d="M457.631 494.116V483.27L454.969 484.194L454.177 481.422L459.149 479.464H461.195V494.116H457.631ZM472.867 490.068C472.867 490.743 472.727 491.344 472.449 491.872C472.17 492.4 471.789 492.855 471.305 493.236C470.835 493.603 470.278 493.889 469.633 494.094C468.987 494.285 468.298 494.38 467.565 494.38C466.831 494.38 466.113 494.3 465.409 494.138C464.719 493.992 464.103 493.801 463.561 493.566L464.133 490.992C464.558 491.183 465.013 491.344 465.497 491.476C465.995 491.594 466.531 491.652 467.103 491.652C467.851 491.652 468.408 491.498 468.775 491.19C469.141 490.868 469.325 490.435 469.325 489.892C469.325 489.247 469.053 488.792 468.511 488.528C467.968 488.25 467.271 488.11 466.421 488.11H464.991V485.338H465.827C466.883 485.338 467.675 485.17 468.203 484.832C468.745 484.48 469.017 484.011 469.017 483.424C469.017 482.97 468.855 482.61 468.533 482.346C468.225 482.068 467.763 481.928 467.147 481.928C466.765 481.928 466.333 481.987 465.849 482.104C465.379 482.207 464.954 482.361 464.573 482.566L463.979 480.102C464.595 479.794 465.218 479.567 465.849 479.42C466.494 479.274 467.198 479.2 467.961 479.2C468.635 479.2 469.259 479.288 469.831 479.464C470.403 479.626 470.887 479.868 471.283 480.19C471.693 480.498 472.009 480.88 472.229 481.334C472.463 481.774 472.581 482.266 472.581 482.808C472.581 483.6 472.346 484.319 471.877 484.964C471.422 485.61 470.777 486.123 469.941 486.504C470.337 486.636 470.711 486.805 471.063 487.01C471.415 487.216 471.723 487.465 471.987 487.758C472.251 488.052 472.463 488.389 472.625 488.77C472.786 489.152 472.867 489.584 472.867 490.068ZM478.59 477C479.133 477 479.61 477.088 480.02 477.264C480.446 477.426 480.805 477.653 481.098 477.946C481.392 478.24 481.612 478.592 481.758 479.002C481.92 479.398 482 479.831 482 480.3C482 480.74 481.934 481.202 481.802 481.686H477.358C477.388 482.214 477.564 482.588 477.886 482.808C478.224 483.014 478.642 483.116 479.14 483.116C479.522 483.116 479.903 483.087 480.284 483.028C480.666 482.97 481.047 482.867 481.428 482.72L481.78 484.458C481.34 484.664 480.849 484.818 480.306 484.92C479.764 485.008 479.228 485.052 478.7 485.052C478.055 485.052 477.468 484.964 476.94 484.788C476.412 484.612 475.958 484.356 475.576 484.018C475.21 483.666 474.916 483.248 474.696 482.764C474.491 482.266 474.388 481.708 474.388 481.092C474.388 480.491 474.484 479.941 474.674 479.442C474.865 478.944 475.136 478.511 475.488 478.144C475.855 477.778 476.295 477.499 476.808 477.308C477.336 477.103 477.93 477 478.59 477ZM478.546 478.672C478.194 478.672 477.916 478.804 477.71 479.068C477.505 479.332 477.395 479.662 477.38 480.058H479.47C479.529 479.677 479.485 479.354 479.338 479.09C479.192 478.812 478.928 478.672 478.546 478.672Z" fill="#FAFAF7"/>
<path d="M307.848 485.861V475.015L305.186 475.939L304.394 473.167L309.366 471.209H311.412V485.861H307.848ZM323.326 482.363V485.861H319.894V482.363H314.174L313.69 479.789L319.124 471.209H323.326V479.679H325.262V482.363H323.326ZM319.894 474.245L316.836 479.679H319.894V474.245ZM330.548 468.745C331.09 468.745 331.567 468.833 331.978 469.009C332.403 469.17 332.762 469.397 333.056 469.691C333.349 469.984 333.569 470.336 333.716 470.747C333.877 471.143 333.958 471.575 333.958 472.045C333.958 472.485 333.892 472.947 333.76 473.431H329.316C329.345 473.959 329.521 474.333 329.844 474.553C330.181 474.758 330.599 474.861 331.098 474.861C331.479 474.861 331.86 474.831 332.242 474.773C332.623 474.714 333.004 474.611 333.386 474.465L333.738 476.203C333.298 476.408 332.806 476.562 332.264 476.665C331.721 476.753 331.186 476.797 330.658 476.797C330.012 476.797 329.426 476.709 328.898 476.533C328.37 476.357 327.915 476.1 327.534 475.763C327.167 475.411 326.874 474.993 326.654 474.509C326.448 474.01 326.346 473.453 326.346 472.837C326.346 472.235 326.441 471.685 326.632 471.187C326.822 470.688 327.094 470.255 327.446 469.889C327.812 469.522 328.252 469.243 328.766 469.053C329.294 468.847 329.888 468.745 330.548 468.745ZM330.504 470.417C330.152 470.417 329.873 470.549 329.668 470.813C329.462 471.077 329.352 471.407 329.338 471.803H331.428C331.486 471.421 331.442 471.099 331.296 470.835C331.149 470.556 330.885 470.417 330.504 470.417Z" fill="#FAFAF7"/>
<path d="M163.962 423.353V412.507L161.3 413.431L160.508 410.659L165.48 408.701H167.526V423.353H163.962ZM179.726 418.799C179.726 419.561 179.572 420.243 179.264 420.845C178.97 421.431 178.567 421.93 178.054 422.341C177.54 422.751 176.932 423.067 176.228 423.287C175.524 423.507 174.768 423.617 173.962 423.617C173.287 423.617 172.605 423.551 171.916 423.419C171.241 423.287 170.676 423.125 170.222 422.935L170.684 420.295C171.153 420.471 171.644 420.617 172.158 420.735C172.686 420.837 173.206 420.889 173.72 420.889C174.526 420.889 175.157 420.727 175.612 420.405C176.066 420.082 176.294 419.613 176.294 418.997C176.294 418.645 176.213 418.351 176.052 418.117C175.89 417.867 175.67 417.669 175.392 417.523C175.128 417.376 174.812 417.273 174.446 417.215C174.094 417.156 173.72 417.127 173.324 417.127H171.036V408.701H178.934V411.517H174.358V414.399H174.71C175.399 414.399 176.044 414.494 176.646 414.685C177.262 414.875 177.797 415.161 178.252 415.543C178.706 415.909 179.066 416.364 179.33 416.907C179.594 417.449 179.726 418.08 179.726 418.799ZM185.394 406.237C185.937 406.237 186.413 406.325 186.824 406.501C187.249 406.662 187.609 406.889 187.902 407.183C188.195 407.476 188.415 407.828 188.562 408.239C188.723 408.635 188.804 409.067 188.804 409.537C188.804 409.977 188.738 410.439 188.606 410.923H184.162C184.191 411.451 184.367 411.825 184.69 412.045C185.027 412.25 185.445 412.353 185.944 412.353C186.325 412.353 186.707 412.323 187.088 412.265C187.469 412.206 187.851 412.103 188.232 411.957L188.584 413.695C188.144 413.9 187.653 414.054 187.11 414.157C186.567 414.245 186.032 414.289 185.504 414.289C184.859 414.289 184.272 414.201 183.744 414.025C183.216 413.849 182.761 413.592 182.38 413.255C182.013 412.903 181.72 412.485 181.5 412.001C181.295 411.502 181.192 410.945 181.192 410.329C181.192 409.727 181.287 409.177 181.478 408.679C181.669 408.18 181.94 407.747 182.292 407.381C182.659 407.014 183.099 406.735 183.612 406.545C184.14 406.339 184.734 406.237 185.394 406.237ZM185.35 407.909C184.998 407.909 184.719 408.041 184.514 408.305C184.309 408.569 184.199 408.899 184.184 409.295H186.274C186.333 408.913 186.289 408.591 186.142 408.327C185.995 408.048 185.731 407.909 185.35 407.909Z" fill="#FAFAF7"/>
<path d="M84.9421 267.673V256.827L82.2801 257.751L81.4881 254.979L86.4601 253.021H88.5061V267.673H84.9421ZM99.9143 255.419C99.4303 255.639 98.917 255.873 98.3743 256.123C97.8463 256.372 97.3403 256.673 96.8563 257.025C96.3723 257.377 95.9396 257.787 95.5583 258.257C95.177 258.726 94.891 259.276 94.7003 259.907C95.023 259.584 95.4263 259.335 95.9103 259.159C96.3943 258.983 96.893 258.895 97.4063 258.895C97.993 258.895 98.543 258.99 99.0563 259.181C99.5697 259.371 100.017 259.65 100.398 260.017C100.794 260.383 101.102 260.838 101.322 261.381C101.542 261.909 101.652 262.51 101.652 263.185C101.652 263.845 101.52 264.468 101.256 265.055C101.007 265.627 100.655 266.133 100.2 266.573C99.7603 266.998 99.2323 267.335 98.6163 267.585C98.015 267.819 97.3623 267.937 96.6583 267.937C95.705 267.937 94.8763 267.768 94.1723 267.431C93.483 267.079 92.911 266.624 92.4563 266.067C92.0016 265.509 91.6643 264.879 91.4443 264.175C91.239 263.471 91.1363 262.759 91.1363 262.041C91.1363 259.797 91.811 257.897 93.1603 256.343C94.5243 254.773 96.4163 253.578 98.8363 252.757L99.9143 255.419ZM98.3743 263.339C98.3743 262.796 98.213 262.363 97.8903 262.041C97.5823 261.718 97.1496 261.557 96.5923 261.557C96.1816 261.557 95.8003 261.637 95.4483 261.799C95.111 261.96 94.8396 262.143 94.6343 262.349C94.6343 262.715 94.6636 263.075 94.7223 263.427C94.7956 263.779 94.8983 264.094 95.0303 264.373C95.177 264.637 95.375 264.857 95.6243 265.033C95.8736 265.194 96.189 265.275 96.5703 265.275C97.0983 265.275 97.531 265.099 97.8683 264.747C98.2056 264.38 98.3743 263.911 98.3743 263.339ZM107.17 250.557C107.712 250.557 108.189 250.645 108.6 250.821C109.025 250.982 109.384 251.209 109.678 251.503C109.971 251.796 110.191 252.148 110.338 252.559C110.499 252.955 110.58 253.387 110.58 253.857C110.58 254.297 110.514 254.759 110.382 255.243H105.938C105.967 255.771 106.143 256.145 106.466 256.365C106.803 256.57 107.221 256.673 107.72 256.673C108.101 256.673 108.482 256.643 108.864 256.585C109.245 256.526 109.626 256.423 110.008 256.277L110.36 258.015C109.92 258.22 109.428 258.374 108.886 258.477C108.343 258.565 107.808 258.609 107.28 258.609C106.634 258.609 106.048 258.521 105.52 258.345C104.992 258.169 104.537 257.912 104.156 257.575C103.789 257.223 103.496 256.805 103.276 256.321C103.07 255.822 102.968 255.265 102.968 254.649C102.968 254.047 103.063 253.497 103.254 252.999C103.444 252.5 103.716 252.067 104.068 251.701C104.434 251.334 104.874 251.055 105.388 250.865C105.916 250.659 106.51 250.557 107.17 250.557ZM107.126 252.229C106.774 252.229 106.495 252.361 106.29 252.625C106.084 252.889 105.974 253.219 105.96 253.615H108.05C108.108 253.233 108.064 252.911 107.918 252.647C107.771 252.368 107.507 252.229 107.126 252.229Z" fill="#FAFAF7"/>
<path d="M233.546 96.6606V85.8146L230.884 86.7386L230.092 83.9666L235.064 82.0086H237.11V96.6606H233.546ZM249.019 84.7806L243.519 96.6606H239.999L245.631 84.8246H239.735V82.0086H248.535L249.019 84.7806ZM254.355 79.5446C254.898 79.5446 255.375 79.6326 255.785 79.8086C256.211 79.9699 256.57 80.1972 256.863 80.4906C257.157 80.7839 257.377 81.1359 257.523 81.5466C257.685 81.9426 257.765 82.3752 257.765 82.8446C257.765 83.2846 257.699 83.7466 257.567 84.2306H253.123C253.153 84.7586 253.329 85.1326 253.651 85.3526C253.989 85.5579 254.407 85.6606 254.905 85.6606C255.287 85.6606 255.668 85.6312 256.049 85.5726C256.431 85.5139 256.812 85.4112 257.193 85.2646L257.545 87.0026C257.105 87.2079 256.614 87.3619 256.071 87.4646C255.529 87.5526 254.993 87.5966 254.465 87.5966C253.82 87.5966 253.233 87.5086 252.705 87.3326C252.177 87.1566 251.723 86.8999 251.341 86.5626C250.975 86.2106 250.681 85.7926 250.461 85.3086C250.256 84.8099 250.153 84.2526 250.153 83.6366C250.153 83.0352 250.249 82.4852 250.439 81.9866C250.63 81.4879 250.901 81.0552 251.253 80.6886C251.62 80.3219 252.06 80.0432 252.573 79.8526C253.101 79.6472 253.695 79.5446 254.355 79.5446ZM254.311 81.2166C253.959 81.2166 253.681 81.3486 253.475 81.6126C253.27 81.8766 253.16 82.2066 253.145 82.6026H255.235C255.294 82.2212 255.25 81.8986 255.103 81.6346C254.957 81.3559 254.693 81.2166 254.311 81.2166Z" fill="#FAFAF7"/>
<path d="M398.661 73.0727V62.2267L395.999 63.1507L395.207 60.3787L400.179 58.4207H402.225V73.0727H398.661ZM410.025 58.1567C410.714 58.1567 411.345 58.2447 411.917 58.4207C412.504 58.5821 413.002 58.8167 413.413 59.1247C413.824 59.4327 414.139 59.8141 414.359 60.2687C414.594 60.7087 414.711 61.2147 414.711 61.7867C414.711 62.1681 414.638 62.5274 414.491 62.8647C414.359 63.2021 414.183 63.5174 413.963 63.8107C413.743 64.0894 413.486 64.3534 413.193 64.6027C412.914 64.8521 412.621 65.0867 412.313 65.3067C412.665 65.5414 413.01 65.7981 413.347 66.0767C413.684 66.3407 413.985 66.6341 414.249 66.9567C414.513 67.2794 414.718 67.6387 414.865 68.0347C415.026 68.4161 415.107 68.8487 415.107 69.3327C415.107 69.8901 414.975 70.4181 414.711 70.9167C414.447 71.4007 414.088 71.8261 413.633 72.1927C413.178 72.5447 412.643 72.8234 412.027 73.0287C411.411 73.2341 410.744 73.3367 410.025 73.3367C408.426 73.3367 407.18 72.9774 406.285 72.2587C405.39 71.5401 404.943 70.5794 404.943 69.3767C404.943 68.9367 405.024 68.5334 405.185 68.1667C405.346 67.8001 405.552 67.4627 405.801 67.1547C406.065 66.8321 406.358 66.5387 406.681 66.2747C407.018 66.0107 407.363 65.7541 407.715 65.5047C407.363 65.2554 407.04 65.0061 406.747 64.7567C406.468 64.4927 406.219 64.2214 405.999 63.9427C405.794 63.6641 405.632 63.3634 405.515 63.0407C405.398 62.7181 405.339 62.3661 405.339 61.9847C405.339 61.4274 405.449 60.9141 405.669 60.4447C405.889 59.9754 406.197 59.5721 406.593 59.2347C407.004 58.8974 407.495 58.6334 408.067 58.4427C408.654 58.2521 409.306 58.1567 410.025 58.1567ZM411.807 69.3107C411.807 69.0907 411.77 68.8927 411.697 68.7167C411.638 68.5407 411.528 68.3721 411.367 68.2107C411.22 68.0347 411.022 67.8587 410.773 67.6827C410.538 67.4921 410.245 67.2721 409.893 67.0227C409.38 67.4041 408.976 67.7561 408.683 68.0787C408.39 68.4014 408.243 68.8121 408.243 69.3107C408.243 69.7947 408.397 70.1687 408.705 70.4327C409.028 70.6967 409.468 70.8287 410.025 70.8287C410.553 70.8287 410.978 70.6821 411.301 70.3887C411.638 70.0954 411.807 69.7361 411.807 69.3107ZM408.573 61.9187C408.573 62.0801 408.588 62.2341 408.617 62.3807C408.661 62.5127 408.734 62.6521 408.837 62.7987C408.954 62.9454 409.108 63.0994 409.299 63.2607C409.49 63.4221 409.739 63.6127 410.047 63.8327C410.472 63.5247 410.817 63.2241 411.081 62.9307C411.345 62.6227 411.477 62.2854 411.477 61.9187C411.477 61.4934 411.338 61.1781 411.059 60.9727C410.78 60.7527 410.436 60.6427 410.025 60.6427C409.6 60.6427 409.248 60.7601 408.969 60.9947C408.705 61.2294 408.573 61.5374 408.573 61.9187ZM420.867 55.9567C421.409 55.9567 421.886 56.0447 422.297 56.2207C422.722 56.3821 423.081 56.6094 423.375 56.9027C423.668 57.1961 423.888 57.5481 424.035 57.9587C424.196 58.3547 424.277 58.7874 424.277 59.2567C424.277 59.6967 424.211 60.1587 424.079 60.6427H419.635C419.664 61.1707 419.84 61.5447 420.163 61.7647C420.5 61.9701 420.918 62.0727 421.417 62.0727C421.798 62.0727 422.179 62.0434 422.561 61.9847C422.942 61.9261 423.323 61.8234 423.705 61.6767L424.057 63.4147C423.617 63.6201 423.125 63.7741 422.583 63.8767C422.04 63.9647 421.505 64.0087 420.977 64.0087C420.331 64.0087 419.745 63.9207 419.217 63.7447C418.689 63.5687 418.234 63.3121 417.853 62.9747C417.486 62.6227 417.193 62.2047 416.973 61.7207C416.767 61.2221 416.665 60.6647 416.665 60.0487C416.665 59.4474 416.76 58.8974 416.951 58.3987C417.141 57.9001 417.413 57.4674 417.765 57.1007C418.131 56.7341 418.571 56.4554 419.085 56.2647C419.613 56.0594 420.207 55.9567 420.867 55.9567ZM420.823 57.6287C420.471 57.6287 420.192 57.7607 419.987 58.0247C419.781 58.2887 419.671 58.6187 419.657 59.0147H421.747C421.805 58.6334 421.761 58.3107 421.615 58.0467C421.468 57.7681 421.204 57.6287 420.823 57.6287Z" fill="#FAFAF7"/>
<path d="M559.058 113.172V102.326L556.396 103.25L555.604 100.478L560.576 98.5201H562.622V113.172H559.058ZM566.881 110.774C567.365 110.554 567.871 110.319 568.399 110.07C568.941 109.821 569.455 109.52 569.939 109.168C570.423 108.816 570.855 108.413 571.237 107.958C571.618 107.489 571.904 106.931 572.095 106.286C571.728 106.623 571.303 106.88 570.819 107.056C570.335 107.217 569.858 107.298 569.389 107.298C568.802 107.298 568.252 107.203 567.739 107.012C567.225 106.821 566.771 106.543 566.375 106.176C565.993 105.809 565.693 105.362 565.473 104.834C565.253 104.291 565.143 103.683 565.143 103.008C565.143 102.231 565.275 101.549 565.539 100.962C565.817 100.361 566.184 99.8621 566.639 99.4661C567.108 99.0701 567.651 98.7695 568.267 98.5641C568.883 98.3588 569.535 98.2561 570.225 98.2561C571.178 98.2561 571.999 98.4321 572.689 98.7841C573.378 99.1215 573.943 99.5688 574.383 100.126C574.823 100.683 575.145 101.314 575.351 102.018C575.556 102.722 575.659 103.433 575.659 104.152C575.659 106.396 574.977 108.303 573.613 109.872C572.263 111.427 570.379 112.615 567.959 113.436L566.881 110.774ZM568.421 102.854C568.421 103.397 568.575 103.829 568.883 104.152C569.205 104.475 569.645 104.636 570.203 104.636C570.613 104.636 570.987 104.555 571.325 104.394C571.677 104.233 571.955 104.049 572.161 103.844C572.161 103.477 572.124 103.118 572.051 102.766C571.992 102.414 571.889 102.106 571.743 101.842C571.611 101.563 571.42 101.343 571.171 101.182C570.921 101.006 570.606 100.918 570.225 100.918C569.697 100.918 569.264 101.101 568.927 101.468C568.589 101.82 568.421 102.282 568.421 102.854ZM581.372 96.0561C581.914 96.0561 582.391 96.1441 582.802 96.3201C583.227 96.4815 583.586 96.7088 583.88 97.0021C584.173 97.2955 584.393 97.6475 584.54 98.0581C584.701 98.4541 584.782 98.8868 584.782 99.3561C584.782 99.7961 584.716 100.258 584.584 100.742H580.14C580.169 101.27 580.345 101.644 580.668 101.864C581.005 102.069 581.423 102.172 581.922 102.172C582.303 102.172 582.684 102.143 583.066 102.084C583.447 102.025 583.828 101.923 584.21 101.776L584.562 103.514C584.122 103.719 583.63 103.873 583.088 103.976C582.545 104.064 582.01 104.108 581.482 104.108C580.836 104.108 580.25 104.02 579.722 103.844C579.194 103.668 578.739 103.411 578.358 103.074C577.991 102.722 577.698 102.304 577.478 101.82C577.272 101.321 577.17 100.764 577.17 100.148C577.17 99.5468 577.265 98.9968 577.456 98.4981C577.646 97.9995 577.918 97.5668 578.27 97.2001C578.636 96.8335 579.076 96.5548 579.59 96.3641C580.118 96.1588 580.712 96.0561 581.372 96.0561ZM581.328 97.7281C580.976 97.7281 580.697 97.8601 580.492 98.1241C580.286 98.3881 580.176 98.7181 580.162 99.1141H582.252C582.31 98.7328 582.266 98.4101 582.12 98.1461C581.973 97.8675 581.709 97.7281 581.328 97.7281Z" fill="#FAFAF7"/>
<path d="M628.648 235.052C629.924 234.275 631.302 233.886 632.784 233.886C633.458 233.886 634.089 233.989 634.676 234.194C635.262 234.385 635.768 234.671 636.194 235.052C636.634 235.419 636.978 235.881 637.228 236.438C637.477 236.996 637.602 237.626 637.602 238.33C637.602 238.902 637.528 239.438 637.382 239.936C637.235 240.435 637.03 240.912 636.766 241.366C636.516 241.806 636.223 242.232 635.886 242.642C635.548 243.038 635.196 243.427 634.83 243.808C634.434 244.219 634.023 244.615 633.598 244.996C633.187 245.363 632.813 245.693 632.476 245.986H637.69V248.802H628.362L627.834 246.778C628.23 246.368 628.582 246.008 628.89 245.7C629.198 245.378 629.484 245.077 629.748 244.798C630.026 244.52 630.29 244.248 630.54 243.984C630.789 243.72 631.053 243.434 631.332 243.126C631.64 242.789 631.955 242.444 632.278 242.092C632.6 241.726 632.886 241.352 633.136 240.97C633.4 240.589 633.612 240.208 633.774 239.826C633.95 239.445 634.038 239.064 634.038 238.682C634.038 238.096 633.862 237.626 633.51 237.274C633.158 236.922 632.666 236.746 632.036 236.746C631.581 236.746 631.156 236.812 630.76 236.944C630.364 237.076 629.953 237.267 629.528 237.516L628.648 235.052ZM651.698 241.476C651.698 242.606 651.573 243.64 651.324 244.578C651.075 245.502 650.701 246.302 650.202 246.976C649.703 247.636 649.08 248.15 648.332 248.516C647.584 248.883 646.719 249.066 645.736 249.066C644.739 249.066 643.866 248.883 643.118 248.516C642.385 248.15 641.769 247.636 641.27 246.976C640.771 246.302 640.397 245.502 640.148 244.578C639.899 243.64 639.774 242.606 639.774 241.476C639.774 240.347 639.899 239.32 640.148 238.396C640.397 237.458 640.771 236.658 641.27 235.998C641.769 235.324 642.385 234.803 643.118 234.436C643.866 234.07 644.739 233.886 645.736 233.886C646.719 233.886 647.584 234.07 648.332 234.436C649.08 234.803 649.703 235.324 650.202 235.998C650.701 236.658 651.075 237.458 651.324 238.396C651.573 239.32 651.698 240.347 651.698 241.476ZM648.134 241.476C648.134 239.922 647.951 238.741 647.584 237.934C647.232 237.113 646.616 236.702 645.736 236.702C644.856 236.702 644.233 237.113 643.866 237.934C643.514 238.741 643.338 239.922 643.338 241.476C643.338 243.031 643.514 244.219 643.866 245.04C644.233 245.847 644.856 246.25 645.736 246.25C646.616 246.25 647.232 245.847 647.584 245.04C647.951 244.219 648.134 243.031 648.134 241.476ZM657.376 231.686C657.918 231.686 658.395 231.774 658.806 231.95C659.231 232.112 659.59 232.339 659.884 232.632C660.177 232.926 660.397 233.278 660.544 233.688C660.705 234.084 660.786 234.517 660.786 234.986C660.786 235.426 660.72 235.888 660.588 236.372H656.144C656.173 236.9 656.349 237.274 656.672 237.494C657.009 237.7 657.427 237.802 657.926 237.802C658.307 237.802 658.688 237.773 659.07 237.714C659.451 237.656 659.832 237.553 660.214 237.406L660.566 239.144C660.126 239.35 659.634 239.504 659.092 239.606C658.549 239.694 658.014 239.738 657.486 239.738C656.84 239.738 656.254 239.65 655.726 239.474C655.198 239.298 654.743 239.042 654.362 238.704C653.995 238.352 653.702 237.934 653.482 237.45C653.276 236.952 653.174 236.394 653.174 235.778C653.174 235.177 653.269 234.627 653.46 234.128C653.65 233.63 653.922 233.197 654.274 232.83C654.64 232.464 655.08 232.185 655.594 231.994C656.122 231.789 656.716 231.686 657.376 231.686ZM657.332 233.358C656.98 233.358 656.701 233.49 656.496 233.754C656.29 234.018 656.18 234.348 656.166 234.744H658.256C658.314 234.363 658.27 234.04 658.124 233.776C657.977 233.498 657.713 233.358 657.332 233.358Z" fill="#FAFAF7"/>
</svg>
